<svg width="320" height="240" viewBox="0 0 320 240" fill="none" xmlns="http://www.w3.org/2000/svg">
<g clip-path="url(#clip0_577_13737)">
<path d="M320 0H0V240H320V0Z" fill="url(#paint0_radial_577_13737)"/>
<path d="M53.9789 166.136C52.8456 166.136 51.8596 165.892 51.0209 165.405C50.1822 164.906 49.5362 164.198 49.0829 163.28C48.6409 162.351 48.4199 161.257 48.4199 159.999C48.4199 158.741 48.6409 157.653 49.0829 156.735C49.5362 155.817 50.1822 155.114 51.0209 154.627C51.8596 154.128 52.8456 153.879 53.9789 153.879C54.8062 153.879 55.5656 154.009 56.2569 154.27C56.9482 154.519 57.5489 154.893 58.0589 155.392L57.5319 156.463C56.9539 155.976 56.3872 155.624 55.8319 155.409C55.2766 155.194 54.6646 155.086 53.9959 155.086C52.6812 155.086 51.6612 155.517 50.9359 156.378C50.2219 157.228 49.8649 158.435 49.8649 159.999C49.8649 161.574 50.2219 162.793 50.9359 163.654C51.6612 164.504 52.6812 164.929 53.9959 164.929C54.6646 164.929 55.2766 164.821 55.8319 164.606C56.3872 164.391 56.9539 164.039 57.5319 163.552L58.0589 164.623C57.5489 165.122 56.9482 165.501 56.2569 165.762C55.5656 166.011 54.8062 166.136 53.9789 166.136ZM69.2476 166L67.9216 162.923H61.6656L60.3396 166H58.9116L64.1816 154.015H65.3886L70.6586 166H69.2476ZM62.1586 161.767H67.4286L64.7936 155.63L62.1586 161.767ZM72.4361 154.015H76.4651C78.3805 154.015 79.8595 154.536 80.9021 155.579C81.9561 156.61 82.4831 158.084 82.4831 159.999C82.4831 161.914 81.9561 163.393 80.9021 164.436C79.8595 165.479 78.3805 166 76.4651 166H72.4361V154.015ZM76.3801 164.81C79.4855 164.81 81.0381 163.206 81.0381 159.999C81.0381 156.803 79.4855 155.205 76.3801 155.205H73.8301V164.81H76.3801ZM89.3863 166V154.015H96.9683V155.171H90.7633V159.336H96.6283V160.492H90.7633V164.844H96.9683V166H89.3863ZM103.021 161.733L106.455 166H104.789L102.205 162.77L99.6379 166H97.9549L101.389 161.733L98.1589 157.721H99.8249L102.205 160.73L104.585 157.721H106.268L103.021 161.733ZM111.212 166.119C110.396 166.119 109.687 165.943 109.087 165.592C108.486 165.241 108.021 164.748 107.693 164.113C107.375 163.467 107.217 162.713 107.217 161.852C107.217 160.991 107.381 160.237 107.71 159.591C108.05 158.934 108.52 158.424 109.121 158.061C109.733 157.698 110.447 157.517 111.263 157.517C111.818 157.517 112.362 157.619 112.895 157.823C113.427 158.016 113.858 158.276 114.187 158.605L113.728 159.625C112.946 158.99 112.152 158.673 111.348 158.673C110.498 158.673 109.835 158.951 109.359 159.506C108.883 160.061 108.645 160.843 108.645 161.852C108.645 162.849 108.883 163.62 109.359 164.164C109.835 164.708 110.498 164.98 111.348 164.98C112.152 164.98 112.946 164.663 113.728 164.028L114.187 165.048C113.835 165.377 113.393 165.637 112.861 165.83C112.328 166.023 111.778 166.119 111.212 166.119ZM120.009 157.517C121.993 157.517 122.984 158.611 122.984 160.798V166H121.607V160.883C121.607 160.112 121.454 159.551 121.148 159.2C120.854 158.849 120.378 158.673 119.72 158.673C118.961 158.673 118.355 158.905 117.901 159.37C117.448 159.835 117.221 160.464 117.221 161.257V166H115.844V154.015H117.221V159.047C117.493 158.548 117.867 158.169 118.343 157.908C118.831 157.647 119.386 157.517 120.009 157.517ZM128.872 157.517C129.926 157.517 130.708 157.789 131.218 158.333C131.74 158.866 132 159.682 132 160.781V166H130.657V164.589C130.442 165.076 130.113 165.456 129.671 165.728C129.229 165.989 128.719 166.119 128.141 166.119C127.609 166.119 127.116 166.011 126.662 165.796C126.22 165.581 125.869 165.28 125.608 164.895C125.348 164.51 125.217 164.085 125.217 163.62C125.217 162.997 125.376 162.515 125.693 162.175C126.011 161.824 126.532 161.574 127.257 161.427C127.983 161.268 128.991 161.189 130.283 161.189H130.657V160.628C130.657 159.937 130.516 159.438 130.232 159.132C129.949 158.815 129.49 158.656 128.855 158.656C127.903 158.656 126.957 158.951 126.016 159.54L125.557 158.537C125.988 158.231 126.504 157.987 127.104 157.806C127.716 157.613 128.306 157.517 128.872 157.517ZM128.328 165.031C129.008 165.031 129.564 164.804 129.994 164.351C130.436 163.886 130.657 163.291 130.657 162.566V162.073H130.351C129.354 162.073 128.595 162.118 128.073 162.209C127.552 162.288 127.178 162.43 126.951 162.634C126.736 162.827 126.628 163.116 126.628 163.501C126.628 163.943 126.787 164.311 127.104 164.606C127.433 164.889 127.841 165.031 128.328 165.031ZM138.686 157.517C140.669 157.517 141.661 158.611 141.661 160.798V166H140.284V160.883C140.284 160.112 140.131 159.551 139.825 159.2C139.53 158.849 139.054 158.673 138.397 158.673C137.638 158.673 137.031 158.905 136.578 159.37C136.125 159.835 135.898 160.464 135.898 161.257V166H134.521V157.721H135.881V159.081C136.153 158.571 136.533 158.186 137.02 157.925C137.507 157.653 138.063 157.517 138.686 157.517ZM151.595 157.721V165.439C151.595 166.674 151.278 167.604 150.643 168.227C150.009 168.862 149.068 169.179 147.821 169.179C146.371 169.179 145.152 168.805 144.166 168.057L144.625 167.037C145.181 167.4 145.702 167.66 146.189 167.819C146.677 167.978 147.221 168.057 147.821 168.057C148.615 168.057 149.215 167.842 149.623 167.411C150.031 166.992 150.235 166.374 150.235 165.558V164.096C149.997 164.629 149.629 165.037 149.13 165.32C148.643 165.603 148.065 165.745 147.396 165.745C146.671 165.745 146.025 165.575 145.458 165.235C144.903 164.895 144.467 164.413 144.149 163.79C143.843 163.167 143.69 162.447 143.69 161.631C143.69 160.815 143.843 160.095 144.149 159.472C144.467 158.849 144.903 158.367 145.458 158.027C146.025 157.687 146.671 157.517 147.396 157.517C148.054 157.517 148.626 157.659 149.113 157.942C149.601 158.225 149.969 158.628 150.218 159.149V157.721H151.595ZM147.668 164.606C148.462 164.606 149.085 164.345 149.538 163.824C149.992 163.291 150.218 162.56 150.218 161.631C150.218 160.713 149.992 159.993 149.538 159.472C149.096 158.939 148.473 158.673 147.668 158.673C146.864 158.673 146.229 158.939 145.764 159.472C145.311 159.993 145.084 160.713 145.084 161.631C145.084 162.56 145.311 163.291 145.764 163.824C146.229 164.345 146.864 164.606 147.668 164.606ZM161.08 162.073H155.028C155.073 163.036 155.334 163.767 155.81 164.266C156.286 164.753 156.96 164.997 157.833 164.997C158.796 164.997 159.68 164.668 160.485 164.011L160.944 165.014C160.581 165.354 160.117 165.626 159.55 165.83C158.983 166.023 158.405 166.119 157.816 166.119C156.524 166.119 155.504 165.739 154.756 164.98C154.019 164.221 153.651 163.172 153.651 161.835C153.651 160.985 153.815 160.237 154.144 159.591C154.473 158.934 154.932 158.424 155.521 158.061C156.122 157.698 156.802 157.517 157.561 157.517C158.66 157.517 159.522 157.88 160.145 158.605C160.768 159.319 161.08 160.305 161.08 161.563V162.073ZM157.578 158.588C156.853 158.588 156.269 158.815 155.827 159.268C155.396 159.721 155.141 160.362 155.062 161.189H159.873C159.85 160.35 159.641 159.71 159.244 159.268C158.847 158.815 158.292 158.588 157.578 158.588ZM167.801 158.707L166.9 158.792C166.05 158.871 165.432 159.138 165.047 159.591C164.673 160.044 164.486 160.605 164.486 161.274V166H163.109V157.721H164.452V159.166C164.917 158.203 165.829 157.664 167.189 157.551L167.682 157.517L167.801 158.707ZM207.025 166V154.015H208.419V164.81H214.42V166H207.025ZM216.002 166V157.721H217.379V166H216.002ZM215.866 154.134H217.532V155.681H215.866V154.134ZM223.455 166.119C222.639 166.119 221.93 165.943 221.33 165.592C220.729 165.241 220.264 164.748 219.936 164.113C219.618 163.467 219.46 162.713 219.46 161.852C219.46 160.991 219.624 160.237 219.953 159.591C220.293 158.934 220.763 158.424 221.364 158.061C221.976 157.698 222.69 157.517 223.506 157.517C224.061 157.517 224.605 157.619 225.138 157.823C225.67 158.016 226.101 158.276 226.43 158.605L225.971 159.625C225.189 158.99 224.395 158.673 223.591 158.673C222.741 158.673 222.078 158.951 221.602 159.506C221.126 160.061 220.888 160.843 220.888 161.852C220.888 162.849 221.126 163.62 221.602 164.164C222.078 164.708 222.741 164.98 223.591 164.98C224.395 164.98 225.189 164.663 225.971 164.028L226.43 165.048C226.078 165.377 225.636 165.637 225.104 165.83C224.571 166.023 224.021 166.119 223.455 166.119ZM235.024 162.073H228.972C229.017 163.036 229.278 163.767 229.754 164.266C230.23 164.753 230.904 164.997 231.777 164.997C232.74 164.997 233.624 164.668 234.429 164.011L234.888 165.014C234.525 165.354 234.06 165.626 233.494 165.83C232.927 166.023 232.349 166.119 231.76 166.119C230.468 166.119 229.448 165.739 228.7 164.98C227.963 164.221 227.595 163.172 227.595 161.835C227.595 160.985 227.759 160.237 228.088 159.591C228.416 158.934 228.875 158.424 229.465 158.061C230.065 157.698 230.745 157.517 231.505 157.517C232.604 157.517 233.465 157.88 234.089 158.605C234.712 159.319 235.024 160.305 235.024 161.563V162.073ZM231.522 158.588C230.796 158.588 230.213 158.815 229.771 159.268C229.34 159.721 229.085 160.362 229.006 161.189H233.817C233.794 160.35 233.584 159.71 233.188 159.268C232.791 158.815 232.236 158.588 231.522 158.588ZM241.217 157.517C243.201 157.517 244.192 158.611 244.192 160.798V166H242.815V160.883C242.815 160.112 242.662 159.551 242.356 159.2C242.062 158.849 241.586 158.673 240.928 158.673C240.169 158.673 239.563 158.905 239.109 159.37C238.656 159.835 238.429 160.464 238.429 161.257V166H237.052V157.721H238.412V159.081C238.684 158.571 239.064 158.186 239.551 157.925C240.039 157.653 240.594 157.517 241.217 157.517ZM249.519 166.119C248.125 166.119 247.02 165.762 246.204 165.048L246.663 164.028C247.105 164.379 247.553 164.634 248.006 164.793C248.471 164.94 248.992 165.014 249.57 165.014C250.182 165.014 250.647 164.912 250.964 164.708C251.293 164.493 251.457 164.187 251.457 163.79C251.457 163.461 251.35 163.201 251.134 163.008C250.919 162.815 250.562 162.662 250.063 162.549L248.669 162.226C247.967 162.067 247.428 161.795 247.054 161.41C246.68 161.025 246.493 160.549 246.493 159.982C246.493 159.245 246.782 158.65 247.36 158.197C247.938 157.744 248.709 157.517 249.672 157.517C250.25 157.517 250.8 157.613 251.321 157.806C251.843 157.987 252.279 158.254 252.63 158.605L252.171 159.608C251.412 158.962 250.579 158.639 249.672 158.639C249.094 158.639 248.641 158.752 248.312 158.979C247.995 159.194 247.836 159.5 247.836 159.897C247.836 160.226 247.933 160.492 248.125 160.696C248.329 160.889 248.652 161.036 249.094 161.138L250.505 161.478C251.276 161.659 251.848 161.937 252.222 162.311C252.596 162.674 252.783 163.15 252.783 163.739C252.783 164.464 252.489 165.042 251.899 165.473C251.321 165.904 250.528 166.119 249.519 166.119ZM254.882 166V157.721H256.259V166H254.882ZM254.746 154.134H256.412V155.681H254.746V154.134ZM262.999 157.517C264.982 157.517 265.974 158.611 265.974 160.798V166H264.597V160.883C264.597 160.112 264.444 159.551 264.138 159.2C263.843 158.849 263.367 158.673 262.71 158.673C261.95 158.673 261.344 158.905 260.891 159.37C260.437 159.835 260.211 160.464 260.211 161.257V166H258.834V157.721H260.194V159.081C260.466 158.571 260.845 158.186 261.333 157.925C261.82 157.653 262.375 157.517 262.999 157.517ZM275.908 157.721V165.439C275.908 166.674 275.59 167.604 274.956 168.227C274.321 168.862 273.38 169.179 272.134 169.179C270.683 169.179 269.465 168.805 268.479 168.057L268.938 167.037C269.493 167.4 270.014 167.66 270.502 167.819C270.989 167.978 271.533 168.057 272.134 168.057C272.927 168.057 273.528 167.842 273.936 167.411C274.344 166.992 274.548 166.374 274.548 165.558V164.096C274.31 164.629 273.941 165.037 273.443 165.32C272.955 165.603 272.377 165.745 271.709 165.745C270.983 165.745 270.337 165.575 269.771 165.235C269.215 164.895 268.779 164.413 268.462 163.79C268.156 163.167 268.003 162.447 268.003 161.631C268.003 160.815 268.156 160.095 268.462 159.472C268.779 158.849 269.215 158.367 269.771 158.027C270.337 157.687 270.983 157.517 271.709 157.517C272.366 157.517 272.938 157.659 273.426 157.942C273.913 158.225 274.281 158.628 274.531 159.149V157.721H275.908ZM271.981 164.606C272.774 164.606 273.397 164.345 273.851 163.824C274.304 163.291 274.531 162.56 274.531 161.631C274.531 160.713 274.304 159.993 273.851 159.472C273.409 158.939 272.785 158.673 271.981 158.673C271.176 158.673 270.541 158.939 270.077 159.472C269.623 159.993 269.397 160.713 269.397 161.631C269.397 162.56 269.623 163.291 270.077 163.824C270.541 164.345 271.176 164.606 271.981 164.606Z" fill="#333333"/>
<path d="M135.572 87.5592L142.216 91.9774C142.216 91.9774 147.975 81.4257 157.604 77.552C170.186 72.4907 177.802 76.0305 177.802 76.0305L173.78 87.7524C173.78 87.7524 166.629 86.295 161.285 89.8063C155.942 93.3169 153.617 99.8829 153.617 99.8829L161.608 104.819L139.431 111.519L135.572 87.5592Z" fill="#286A99"/>
<path d="M185.426 115.442L178.781 111.025C178.781 111.025 173.023 121.576 163.394 125.451C150.812 130.511 143.197 126.971 143.197 126.971L147.218 115.251C147.218 115.251 154.369 116.708 159.713 113.195C165.056 109.686 167.381 103.12 167.381 103.12L159.391 98.1832L181.568 91.483L185.426 115.442Z" fill="#3FAC4F"/>
<path d="M174.033 166.011V153.955H175.435V164.78H181.574V166.011H174.033Z" fill="#333333"/>
<path d="M185.746 166.165C185.176 166.165 184.663 166.056 184.207 165.84C183.762 165.612 183.409 165.304 183.146 164.916C182.884 164.529 182.753 164.096 182.753 163.617C182.753 163.013 182.907 162.534 183.215 162.18C183.534 161.827 184.053 161.576 184.771 161.428C185.501 161.268 186.492 161.189 187.746 161.189H188.294V160.658C188.294 159.952 188.145 159.444 187.849 159.137C187.564 158.817 187.102 158.658 186.464 158.658C185.962 158.658 185.478 158.732 185.01 158.88C184.543 159.017 184.064 159.245 183.574 159.564L183.095 158.555C183.528 158.247 184.053 158.002 184.668 157.82C185.295 157.637 185.894 157.546 186.464 157.546C187.535 157.546 188.328 157.808 188.841 158.333C189.365 158.857 189.627 159.672 189.627 160.778V166.011H188.328V164.574C188.111 165.065 187.775 165.452 187.319 165.737C186.874 166.022 186.35 166.165 185.746 166.165ZM185.968 165.122C186.652 165.122 187.211 164.888 187.644 164.42C188.077 163.942 188.294 163.337 188.294 162.608V162.095H187.763C186.84 162.095 186.11 162.14 185.575 162.232C185.05 162.311 184.68 162.46 184.463 162.676C184.258 162.881 184.155 163.166 184.155 163.531C184.155 163.999 184.315 164.381 184.634 164.677C184.965 164.973 185.409 165.122 185.968 165.122Z" fill="#333333"/>
<path d="M196.404 166.165C195.742 166.165 195.161 166.016 194.659 165.72C194.169 165.424 193.799 165.019 193.548 164.506V166.011H192.197V153.955H193.582V159.137C193.822 158.646 194.192 158.259 194.694 157.974C195.195 157.689 195.765 157.546 196.404 157.546C197.145 157.546 197.789 157.723 198.336 158.076C198.895 158.418 199.322 158.914 199.618 159.564C199.926 160.202 200.08 160.966 200.08 161.855C200.08 162.733 199.926 163.497 199.618 164.147C199.322 164.785 198.895 165.281 198.336 165.635C197.789 165.988 197.145 166.165 196.404 166.165ZM196.113 165.053C196.888 165.053 197.509 164.78 197.977 164.232C198.444 163.674 198.678 162.881 198.678 161.855C198.678 160.818 198.444 160.026 197.977 159.479C197.509 158.931 196.888 158.658 196.113 158.658C195.338 158.658 194.716 158.931 194.249 159.479C193.782 160.026 193.548 160.818 193.548 161.855C193.548 162.881 193.782 163.674 194.249 164.232C194.716 164.78 195.338 165.053 196.113 165.053Z" fill="#333333"/>
</g>
<defs>
<radialGradient id="paint0_radial_577_13737" cx="0" cy="0" r="1" gradientUnits="userSpaceOnUse" gradientTransform="translate(160 110.182) rotate(90) scale(153.318 361.301)">
<stop offset="0.338978" stop-color="#F2F2F2" stop-opacity="0.19"/>
<stop offset="1" stop-color="#EEEEEE"/>
</radialGradient>
<clipPath id="clip0_577_13737">
<rect width="320" height="240" fill="white"/>
</clipPath>
</defs>
</svg>
